<svg width="38" height="24" viewBox="0 0 38 24" fill="none" xmlns="http://www.w3.org/2000/svg">
<path d="M18.6266 18.6663H19.835V17.333C20.6127 17.2219 21.2725 16.9025 21.8141 16.3747C22.3558 15.8469 22.6266 15.1663 22.6266 14.333C22.6266 13.6108 22.3489 13.0066 21.7933 12.5205C21.2377 12.0344 20.5989 11.6386 19.8766 11.333V8.24967C20.1544 8.33301 20.3836 8.4719 20.5641 8.66634C20.7447 8.86079 20.8766 9.0969 20.96 9.37467L22.46 8.74967C22.2655 8.16634 21.9322 7.70106 21.46 7.35384C20.9877 7.00662 20.46 6.77745 19.8766 6.66634V5.33301H18.6266V6.62467C17.8489 6.70801 17.1891 6.99273 16.6475 7.47884C16.1058 7.96495 15.835 8.61079 15.835 9.41634C15.835 10.1663 16.1197 10.7913 16.6891 11.2913C17.2586 11.7913 17.9044 12.1941 18.6266 12.4997V15.7913C18.1822 15.6525 17.8072 15.4163 17.5016 15.083C17.1961 14.7497 16.9877 14.3608 16.8766 13.9163L15.4183 14.5413C15.6405 15.3191 16.0294 15.958 16.585 16.458C17.1405 16.958 17.8211 17.2636 18.6266 17.3747V18.6663ZM19.8766 15.7497V12.9997C20.1822 13.1386 20.453 13.3052 20.6891 13.4997C20.9252 13.6941 21.0433 13.9858 21.0433 14.3747C21.0433 14.8191 20.9322 15.1316 20.71 15.3122C20.4877 15.4927 20.21 15.6386 19.8766 15.7497ZM18.6266 10.7913C18.3211 10.6525 18.0433 10.4858 17.7933 10.2913C17.5433 10.0969 17.4183 9.80523 17.4183 9.41634C17.4183 9.02745 17.5433 8.74273 17.7933 8.56217C18.0433 8.38162 18.3211 8.26356 18.6266 8.20801V10.7913ZM12.3766 23.6663C9.12663 23.6663 6.36968 22.5344 4.10579 20.2705C1.84191 18.0066 0.709961 15.2497 0.709961 11.9997C0.709961 8.74967 1.84191 5.99273 4.10579 3.72884C6.36968 1.46495 9.12663 0.333008 12.3766 0.333008H25.71C28.96 0.333008 31.7169 1.46495 33.9808 3.72884C36.2447 5.99273 37.3766 8.74967 37.3766 11.9997C37.3766 15.2497 36.2447 18.0066 33.9808 20.2705C31.7169 22.5344 28.96 23.6663 25.71 23.6663H12.3766ZM12.3766 20.333H25.71C28.0155 20.333 29.9808 19.5205 31.6058 17.8955C33.2308 16.2705 34.0433 14.3052 34.0433 11.9997C34.0433 9.69412 33.2308 7.72884 31.6058 6.10384C29.9808 4.47884 28.0155 3.66634 25.71 3.66634H12.3766C10.0711 3.66634 8.10579 4.47884 6.48079 6.10384C4.85579 7.72884 4.04329 9.69412 4.04329 11.9997C4.04329 14.3052 4.85579 16.2705 6.48079 17.8955C8.10579 19.5205 10.0711 20.333 12.3766 20.333Z" fill="white"/>
</svg>
